<svg id="img" width="34" height="33" viewBox="0 0 34 33" fill="none" xmlns="http://www.w3.org/2000/svg">
<g id="FS / Stroke / 33 ">
<path fill-rule="evenodd" clip-rule="evenodd" d="M27.3288 11.9322C28.0991 11.9322 28.7235 12.5567 28.7235 13.327C28.7235 14.0973 28.0991 14.7218 27.3288 14.7218C26.5584 14.7218 25.934 14.0973 25.934 13.327C25.934 12.5567 26.5584 11.9322 27.3288 11.9322ZM28.5588 13.327C28.5588 12.6477 28.0081 12.097 27.3288 12.097C26.6494 12.097 26.0987 12.6477 26.0987 13.327C26.0987 14.0063 26.6494 14.557 27.3288 14.557C28.0081 14.557 28.5588 14.0063 28.5588 13.327Z" fill="currentColor"/>
<path d="M12.3096 10.0991C12.3096 11.0136 13.0509 11.755 13.9655 11.755C14.88 11.755 15.6213 11.0136 15.6213 10.0991C15.6213 9.18456 14.88 8.4432 13.9655 8.4432C13.0509 8.4432 12.3096 9.18456 12.3096 10.0991Z" fill="currentColor"/>
<path d="M9.33126 10.3912C8.41674 10.3912 7.67537 9.64988 7.67537 8.73536C7.67537 7.82085 8.41674 7.07948 9.33126 7.07948C10.2458 7.07948 10.9871 7.82085 10.9871 8.73536C10.9871 9.64988 10.2458 10.3912 9.33126 10.3912Z" fill="currentColor"/>
<path d="M4.58951 12.0871C4.54909 12.1079 4.53325 12.1576 4.55413 12.1981C5.86797 14.7414 7.76813 16.1654 9.82495 16.5989C11.8805 17.0321 14.0806 16.4735 15.9914 15.0752C16.0281 15.0483 16.0361 14.9968 16.0092 14.9601C15.9823 14.9234 15.9308 14.9154 15.8941 14.9423C14.0147 16.3176 11.8614 16.8597 9.85893 16.4377C7.85773 16.0159 5.99524 14.6289 4.70051 12.1224C4.67962 12.082 4.62993 12.0662 4.58951 12.0871Z" fill="currentColor"/>
<path fill-rule="evenodd" clip-rule="evenodd" d="M23.5576 5.65283C25.092 5.65283 26.3474 6.80224 26.3474 8.23374C26.3474 9.66524 25.092 10.8146 23.5576 10.8146C22.0232 10.8146 20.7679 9.66524 20.7679 8.23374C20.7679 6.80224 22.0232 5.65283 23.5576 5.65283ZM26.1826 8.23374C26.1826 6.90543 25.0137 5.81758 23.5576 5.81758C22.1015 5.81758 20.9326 6.90543 20.9326 8.23374C20.9326 9.56204 22.1015 10.6499 23.5576 10.6499C25.0137 10.6499 26.1826 9.56204 26.1826 8.23374Z" fill="currentColor"/>
<path fill-rule="evenodd" clip-rule="evenodd" d="M17 0.5C25.8366 0.5 33 7.66345 33 16.5C33 25.3366 25.8366 32.5 17 32.5C8.16344 32.5 1 25.3366 1 16.5C1 7.66345 8.16344 0.5 17 0.5ZM32.8352 16.5C32.8352 7.75444 25.7456 0.664754 17 0.664754C8.25443 0.664754 1.16475 7.75444 1.16475 16.5C1.16475 25.2456 8.25443 32.3352 17 32.3352C25.7456 32.3352 32.8352 25.2456 32.8352 16.5Z" fill="currentColor"/>
<path fill-rule="evenodd" clip-rule="evenodd" d="M27.3288 11.9322C28.0991 11.9322 28.7235 12.5567 28.7235 13.327C28.7235 14.0973 28.0991 14.7218 27.3288 14.7218C26.5584 14.7218 25.934 14.0973 25.934 13.327C25.934 12.5567 26.5584 11.9322 27.3288 11.9322ZM28.5588 13.327C28.5588 12.6477 28.0081 12.097 27.3288 12.097C26.6494 12.097 26.0987 12.6477 26.0987 13.327C26.0987 14.0063 26.6494 14.557 27.3288 14.557C28.0081 14.557 28.5588 14.0063 28.5588 13.327Z" stroke="currentColor"/>
<path d="M12.3096 10.0991C12.3096 11.0136 13.0509 11.755 13.9655 11.755C14.88 11.755 15.6213 11.0136 15.6213 10.0991C15.6213 9.18456 14.88 8.4432 13.9655 8.4432C13.0509 8.4432 12.3096 9.18456 12.3096 10.0991Z" stroke="currentColor"/>
<path d="M9.33126 10.3912C8.41674 10.3912 7.67537 9.64988 7.67537 8.73536C7.67537 7.82085 8.41674 7.07948 9.33126 7.07948C10.2458 7.07948 10.9871 7.82085 10.9871 8.73536C10.9871 9.64988 10.2458 10.3912 9.33126 10.3912Z" stroke="currentColor"/>
<path d="M4.58951 12.0871C4.54909 12.1079 4.53325 12.1576 4.55413 12.1981C5.86797 14.7414 7.76813 16.1654 9.82495 16.5989C11.8805 17.0321 14.0806 16.4735 15.9914 15.0752C16.0281 15.0483 16.0361 14.9968 16.0092 14.9601C15.9823 14.9234 15.9308 14.9154 15.8941 14.9423C14.0147 16.3176 11.8614 16.8597 9.85893 16.4377C7.85773 16.0159 5.99524 14.6289 4.70051 12.1224C4.67962 12.082 4.62993 12.0662 4.58951 12.0871Z" stroke="currentColor"/>
<path fill-rule="evenodd" clip-rule="evenodd" d="M23.5576 5.65283C25.092 5.65283 26.3474 6.80224 26.3474 8.23374C26.3474 9.66524 25.092 10.8146 23.5576 10.8146C22.0232 10.8146 20.7679 9.66524 20.7679 8.23374C20.7679 6.80224 22.0232 5.65283 23.5576 5.65283ZM26.1826 8.23374C26.1826 6.90543 25.0137 5.81758 23.5576 5.81758C22.1015 5.81758 20.9326 6.90543 20.9326 8.23374C20.9326 9.56204 22.1015 10.6499 23.5576 10.6499C25.0137 10.6499 26.1826 9.56204 26.1826 8.23374Z" stroke="currentColor"/>
<path fill-rule="evenodd" clip-rule="evenodd" d="M17 0.5C25.8366 0.5 33 7.66345 33 16.5C33 25.3366 25.8366 32.5 17 32.5C8.16344 32.5 1 25.3366 1 16.5C1 7.66345 8.16344 0.5 17 0.5ZM32.8352 16.5C32.8352 7.75444 25.7456 0.664754 17 0.664754C8.25443 0.664754 1.16475 7.75444 1.16475 16.5C1.16475 25.2456 8.25443 32.3352 17 32.3352C25.7456 32.3352 32.8352 25.2456 32.8352 16.5Z" stroke="currentColor"/>
</g>
</svg>
