<svg id="img" width="48" height="48" viewBox="0 0 48 48" fill="none" xmlns="http://www.w3.org/2000/svg">
<g clip-path="url(#clip0_271_708)">
<path d="M46.154 10.5597L44.308 9.6L43.2205 9.03468L42.4613 8.63969L40.6153 7.68L38.7693 6.71969L36.9233 5.76L36.826 5.70939L35.0766 4.79969L33.2306 3.84L31.3846 2.87969L30.4301 2.38349L29.5386 1.92L27.6919 0.959691L25.8459 0V48L27.6926 47.0397L29.5386 46.08L30.4315 45.6159L31.3846 45.1203L33.2306 44.16L35.0773 43.2003L36.826 42.2906L36.9233 42.24L38.77 41.2797L40.6153 40.32L42.462 39.3603L43.2219 38.9647L44.308 38.4L46.1546 37.4397L48 36.48V11.52L46.154 10.5597ZM44.308 34.5594L42.4613 35.5197L42.231 35.6394L40.6153 36.48L38.7693 37.4397L36.9233 38.3994L35.8365 38.9647L35.0773 39.3597L33.2306 40.32L29.5386 42.2394V25.6623H44.308V34.5594ZM44.308 22.337H29.5386V5.76L33.2306 7.67938L35.0773 8.63969L35.8365 9.03468L36.9233 9.6L40.6153 11.5194L42.2324 12.3606L42.4613 12.4797L44.308 13.44V22.337Z" fill="currentColor"/>
<path d="M18.4613 1.92V5.70939H18.5579L18.4613 5.76V42.2394L18.5593 42.2906H18.4613V42.2394L14.7693 40.32L12.9227 39.3597L12.1634 38.9647L11.0767 38.3994L9.23066 37.4397L7.38467 36.48L5.76891 35.6394L5.53867 35.5197L3.69199 34.5594V9.6L1.846 10.5597L0 11.52V36.48L1.84531 37.4397L3.69199 38.4L4.77807 38.9647L5.53799 39.3603H5.53867L7.38467 40.32L9.22998 41.2797L11.0767 42.24L11.174 42.2906L12.9227 43.2003H12.9233L14.7693 44.16L16.6153 45.1203L17.5685 45.6159L18.4613 46.08L20.3073 47.0397L22.154 48V42.2906H22.0567L22.154 42.24V5.76L22.0567 5.70939H22.154V0L20.308 0.959691L18.4613 1.92Z" fill="currentColor"/>
</g>
<defs>
<clipPath id="clip0_271_708">
<rect width="48" height="48" fill="currentColor"/>
</clipPath>
</defs>
</svg>
